<?xml version="1.0" encoding="UTF-8" standalone="no"?>
<!DOCTYPE svg PUBLIC "-//W3C//DTD SVG 1.1//EN" "http://www.w3.org/Graphics/SVG/1.1/DTD/svg11.dtd">
<svg xmlns="http://www.w3.org/2000/svg" xmlns:xlink="http://www.w3.org/1999/xlink" version="1.1" width="309.913pt" height="196.629pt" viewBox="0 0 309.913 196.629">
<g enable-background="new">
<path transform="matrix(1,0,0,-1,42.618,167.926)" stroke-width=".3985" stroke-linecap="butt" stroke-dasharray="2.98883,2.98883" stroke-miterlimit="10" stroke-linejoin="miter" fill="none" stroke="#cbcbcb" d="M 16.5317 0 L 16.5317 161.39788 M 27.55281 0 L 27.55281 161.39788 M 38.57394 0 L 38.57394 161.39788 M 60.61621 0 L 60.61621 161.39788 M 82.65846 0 L 82.65846 161.39788 M 126.743 0 L 126.743 161.39788 M 170.82752 0 L 170.82752 161.39788 M 214.91204 0 L 214.91204 161.39788 M 258.99656 0 L 258.99656 161.39788 "/>
<path transform="matrix(1,0,0,-1,42.618,167.926)" stroke-width=".3985" stroke-linecap="butt" stroke-dasharray="2.98883,2.98883" stroke-miterlimit="10" stroke-linejoin="miter" fill="none" stroke="#cbcbcb" d="M 0 0 L 264.50715 0 M 0 23.05684 L 264.50715 23.05684 M 0 46.11368 L 264.50715 46.11368 M 0 69.17052 L 264.50715 69.17052 M 0 92.22736 L 264.50715 92.22736 M 0 115.2842 L 264.50715 115.2842 M 0 138.34104 L 264.50715 138.34104 M 0 161.39788 L 264.50715 161.39788 "/>
<path transform="matrix(1,0,0,-1,42.618,167.926)" stroke-width=".19925" stroke-linecap="butt" stroke-miterlimit="10" stroke-linejoin="miter" fill="none" stroke="#929292" d="M 16.5317 0 L 16.5317 4.25183 M 27.55281 0 L 27.55281 4.25183 M 38.57394 0 L 38.57394 4.25183 M 60.61621 0 L 60.61621 4.25183 M 82.65846 0 L 82.65846 4.25183 M 126.743 0 L 126.743 4.25183 M 170.82752 0 L 170.82752 4.25183 M 214.91204 0 L 214.91204 4.25183 M 258.99656 0 L 258.99656 4.25183 M 16.5317 161.39788 L 16.5317 157.14603 M 27.55281 161.39788 L 27.55281 157.14603 M 38.57394 161.39788 L 38.57394 157.14603 M 60.61621 161.39788 L 60.61621 157.14603 M 82.65846 161.39788 L 82.65846 157.14603 M 126.743 161.39788 L 126.743 157.14603 M 170.82752 161.39788 L 170.82752 157.14603 M 214.91204 161.39788 L 214.91204 157.14603 M 258.99656 161.39788 L 258.99656 157.14603 "/>
<path transform="matrix(1,0,0,-1,42.618,167.926)" stroke-width=".19925" stroke-linecap="butt" stroke-miterlimit="10" stroke-linejoin="miter" fill="none" stroke="#929292" d="M 0 0 L 4.25249 0 M 0 23.05684 L 4.25249 23.05684 M 0 46.11368 L 4.25249 46.11368 M 0 69.17052 L 4.25249 69.17052 M 0 92.22736 L 4.25249 92.22736 M 0 115.2842 L 4.25249 115.2842 M 0 138.34104 L 4.25249 138.34104 M 0 161.39788 L 4.25249 161.39788 M 264.50715 0 L 260.2546 0 M 264.50715 23.05684 L 260.2546 23.05684 M 264.50715 46.11368 L 260.2546 46.11368 M 264.50715 69.17052 L 260.2546 69.17052 M 264.50715 92.22736 L 260.2546 92.22736 M 264.50715 115.2842 L 260.2546 115.2842 M 264.50715 138.34104 L 260.2546 138.34104 M 264.50715 161.39788 L 260.2546 161.39788 "/>
<path transform="matrix(1,0,0,-1,42.618,167.926)" stroke-width=".3985" stroke-linecap="butt" stroke-miterlimit="10" stroke-linejoin="miter" fill="none" stroke="#000000" d="M 0 0 L 0 161.39788 L 264.50715 161.39788 L 264.50715 0 L 0 0 Z "/>
<text xml:space="preserve" transform="matrix(1 0 -0 1 0 196.629)" font-size="9.9626" font-family="CMR10"><tspan y="-18.763" x="56.658">2</tspan></text>
<text xml:space="preserve" transform="matrix(1 0 -0 1 0 196.629)" font-size="9.9626" font-family="CMR10"><tspan y="-18.763" x="67.679">3</tspan></text>
<text xml:space="preserve" transform="matrix(1 0 -0 1 0 196.629)" font-size="9.9626" font-family="CMR10"><tspan y="-18.763" x="78.7">4</tspan></text>
<text xml:space="preserve" transform="matrix(1 0 -0 1 .0000076293949 196.629)" font-size="9.9626" font-family="CMR10"><tspan y="-18.763" x="100.742">6</tspan></text>
<text xml:space="preserve" transform="matrix(1 0 -0 1 0 196.629)" font-size="9.9626" font-family="CMR10"><tspan y="-18.763" x="122.784">8</tspan></text>
<text xml:space="preserve" transform="matrix(1 0 -0 1 0 196.629)" font-size="9.9626" font-family="CMR10"><tspan y="-18.763" x="164.378 169.3593">12</tspan></text>
<text xml:space="preserve" transform="matrix(1 0 -0 1 -.000015258789 196.629)" font-size="9.9626" font-family="CMR10"><tspan y="-18.763" x="208.462 213.4433">16</tspan></text>
<text xml:space="preserve" transform="matrix(1 0 -0 1 -.000015258789 196.629)" font-size="9.9626" font-family="CMR10"><tspan y="-18.763" x="252.546 257.5273">20</tspan></text>
<text xml:space="preserve" transform="matrix(1 0 -0 1 0 196.629)" font-size="9.9626" font-family="CMR10"><tspan y="-18.763" x="296.63 301.6113">24</tspan></text>
<text xml:space="preserve" transform="matrix(1 0 -0 1 0 196.629)" font-size="9.9626" font-family="CMR10"><tspan y="-25.493" x="34.117">1</tspan></text>
<text xml:space="preserve" transform="matrix(1 0 -0 1 0 196.62899)" font-size="9.9626" font-family="CMR10"><tspan y="-48.549" x="34.117">2</tspan></text>
<text xml:space="preserve" transform="matrix(1 0 -0 1 0 196.629)" font-size="9.9626" font-family="CMR10"><tspan y="-71.606" x="34.117">3</tspan></text>
<text xml:space="preserve" transform="matrix(1 0 -0 1 0 196.629)" font-size="9.9626" font-family="CMR10"><tspan y="-94.662" x="34.117">4</tspan></text>
<text xml:space="preserve" transform="matrix(1 0 -0 1 0 196.629)" font-size="9.9626" font-family="CMR10"><tspan y="-117.719" x="34.117">5</tspan></text>
<text xml:space="preserve" transform="matrix(1 0 -0 1 0 196.629)" font-size="9.9626" font-family="CMR10"><tspan y="-140.775" x="34.117">6</tspan></text>
<text xml:space="preserve" transform="matrix(1 0 -0 1 0 196.629)" font-size="9.9626" font-family="CMR10"><tspan y="-163.832" x="34.117">7</tspan></text>
<text xml:space="preserve" transform="matrix(1 0 -0 1 0 196.629)" font-size="9.9626" font-family="CMR10"><tspan y="-186.889" x="34.117">8</tspan></text>
<clipPath id="cp0">
<path transform="matrix(1,0,0,-1,42.618,167.926)" d="M 0 0 L 264.50715 0 L 264.50715 161.39788 L 0 161.39788 Z "/>
</clipPath>
<g clip-path="url(#cp0)">
<path transform="matrix(1,0,0,-1,42.618,167.926)" stroke-width=".3985" stroke-linecap="butt" stroke-miterlimit="10" stroke-linejoin="miter" fill="none" stroke="#000000" d="M 5.51056 0 L 16.5317 15.23038 L 27.55281 22.41946 L 38.57394 29.66422 L 60.61621 48.01674 L 82.65846 63.27223 L 126.743 96.99893 L 170.82752 119.63821 L 214.91204 129.21607 L 258.99656 140.80129 "/>
</g>
<path transform="matrix(1,0,0,-1,42.618,167.926)" stroke-width=".3985" stroke-linecap="butt" stroke-miterlimit="10" stroke-linejoin="miter" fill="none" stroke="#000000" d="M 3.518 -1.99255 L 7.5031 -1.99255 L 7.5031 1.99255 L 3.518 1.99255 Z "/>
<path transform="matrix(1,0,0,-1,42.618,167.926)" stroke-width=".3985" stroke-linecap="butt" stroke-miterlimit="10" stroke-linejoin="miter" fill="none" stroke="#000000" d="M 14.53914 13.23782 L 18.52424 13.23782 L 18.52424 17.22292 L 14.53914 17.22292 Z "/>
<path transform="matrix(1,0,0,-1,42.618,167.926)" stroke-width=".3985" stroke-linecap="butt" stroke-miterlimit="10" stroke-linejoin="miter" fill="none" stroke="#000000" d="M 25.56026 20.42691 L 29.54536 20.42691 L 29.54536 24.41201 L 25.56026 24.41201 Z "/>
<path transform="matrix(1,0,0,-1,42.618,167.926)" stroke-width=".3985" stroke-linecap="butt" stroke-miterlimit="10" stroke-linejoin="miter" fill="none" stroke="#000000" d="M 36.58139 27.67166 L 40.56649 27.67166 L 40.56649 31.65676 L 36.58139 31.65676 Z "/>
<path transform="matrix(1,0,0,-1,42.618,167.926)" stroke-width=".3985" stroke-linecap="butt" stroke-miterlimit="10" stroke-linejoin="miter" fill="none" stroke="#000000" d="M 58.62366 46.02419 L 62.60876 46.02419 L 62.60876 50.00929 L 58.62366 50.00929 Z "/>
<path transform="matrix(1,0,0,-1,42.618,167.926)" stroke-width=".3985" stroke-linecap="butt" stroke-miterlimit="10" stroke-linejoin="miter" fill="none" stroke="#000000" d="M 80.66591 61.27968 L 84.65101 61.27968 L 84.65101 65.26478 L 80.66591 65.26478 Z "/>
<path transform="matrix(1,0,0,-1,42.618,167.926)" stroke-width=".3985" stroke-linecap="butt" stroke-miterlimit="10" stroke-linejoin="miter" fill="none" stroke="#000000" d="M 124.75044 95.00638 L 128.73555 95.00638 L 128.73555 98.99148 L 124.75044 98.99148 Z "/>
<path transform="matrix(1,0,0,-1,42.618,167.926)" stroke-width=".3985" stroke-linecap="butt" stroke-miterlimit="10" stroke-linejoin="miter" fill="none" stroke="#000000" d="M 168.83496 117.64566 L 172.82007 117.64566 L 172.82007 121.63076 L 168.83496 121.63076 Z "/>
<path transform="matrix(1,0,0,-1,42.618,167.926)" stroke-width=".3985" stroke-linecap="butt" stroke-miterlimit="10" stroke-linejoin="miter" fill="none" stroke="#000000" d="M 212.91948 127.22351 L 216.90459 127.22351 L 216.90459 131.20862 L 212.91948 131.20862 Z "/>
<path transform="matrix(1,0,0,-1,42.618,167.926)" stroke-width=".3985" stroke-linecap="butt" stroke-miterlimit="10" stroke-linejoin="miter" fill="none" stroke="#000000" d="M 257.004 138.80873 L 260.9891 138.80873 L 260.9891 142.79384 L 257.004 142.79384 Z "/>
<path transform="matrix(1,0,0,-1,42.618,167.926)" stroke-width=".3985" stroke-linecap="butt" stroke-miterlimit="10" stroke-linejoin="miter" fill="none" stroke="#000000" d=""/>
<text xml:space="preserve" transform="matrix(1 0 -0 1 0 196.629)" font-size="9.9626" font-family="CMR10"><tspan y="-3.321" x="157.117 164.31 169.8492 173.75453 178.17794 183.15923 188.69843">Threads</tspan></text>
<text xml:space="preserve" transform="matrix(0 -1 1 0 101.237 115.869998)" font-size="9.9626" font-family="CMR10"><tspan y="-90.998" x="10.239 15.778206 21.596365 26.01976 30.443156 35.98236 41.52157">Speedup</tspan></text>
</g>
</svg>
