<?xml version="1.0" encoding="UTF-8" standalone="no"?>
<!DOCTYPE svg PUBLIC "-//W3C//DTD SVG 1.1//EN" "http://www.w3.org/Graphics/SVG/1.1/DTD/svg11.dtd">
<svg xmlns="http://www.w3.org/2000/svg" xmlns:xlink="http://www.w3.org/1999/xlink" version="1.1" width="309.913pt" height="190.288pt" viewBox="0 0 309.913 190.288">
<g enable-background="new">
<path transform="matrix(1,0,0,-1,42.618,161.58499)" stroke-width=".3985" stroke-linecap="butt" stroke-dasharray="2.98883,2.98883" stroke-miterlimit="10" stroke-linejoin="miter" fill="none" stroke="#cbcbcb" d="M 5.51056 0 L 5.51056 161.388 M 16.5317 0 L 16.5317 161.388 M 27.55281 0 L 27.55281 161.388 M 38.57394 0 L 38.57394 161.388 M 60.61621 0 L 60.61621 161.388 M 82.65846 0 L 82.65846 161.388 M 126.743 0 L 126.743 161.388 M 170.82752 0 L 170.82752 161.388 M 214.91204 0 L 214.91204 161.388 M 258.99656 0 L 258.99656 161.388 "/>
<path transform="matrix(1,0,0,-1,42.618,161.58499)" stroke-width=".3985" stroke-linecap="butt" stroke-dasharray="2.98883,2.98883" stroke-miterlimit="10" stroke-linejoin="miter" fill="none" stroke="#cbcbcb" d="M 0 0 L 264.50715 0 M 0 16.9882 L 264.50715 16.9882 M 0 33.97641 L 264.50715 33.97641 M 0 50.96463 L 264.50715 50.96463 M 0 67.95284 L 264.50715 67.95284 M 0 84.94104 L 264.50715 84.94104 M 0 101.92926 L 264.50715 101.92926 M 0 118.91747 L 264.50715 118.91747 M 0 135.90569 L 264.50715 135.90569 M 0 152.89389 L 264.50715 152.89389 "/>
<path transform="matrix(1,0,0,-1,42.618,161.58499)" stroke-width=".19925" stroke-linecap="butt" stroke-miterlimit="10" stroke-linejoin="miter" fill="none" stroke="#929292" d="M 5.51056 0 L 5.51056 4.25189 M 16.5317 0 L 16.5317 4.25189 M 27.55281 0 L 27.55281 4.25189 M 38.57394 0 L 38.57394 4.25189 M 60.61621 0 L 60.61621 4.25189 M 82.65846 0 L 82.65846 4.25189 M 126.743 0 L 126.743 4.25189 M 170.82752 0 L 170.82752 4.25189 M 214.91204 0 L 214.91204 4.25189 M 258.99656 0 L 258.99656 4.25189 M 5.51056 161.388 L 5.51056 157.13608 M 16.5317 161.388 L 16.5317 157.13608 M 27.55281 161.388 L 27.55281 157.13608 M 38.57394 161.388 L 38.57394 157.13608 M 60.61621 161.388 L 60.61621 157.13608 M 82.65846 161.388 L 82.65846 157.13608 M 126.743 161.388 L 126.743 157.13608 M 170.82752 161.388 L 170.82752 157.13608 M 214.91204 161.388 L 214.91204 157.13608 M 258.99656 161.388 L 258.99656 157.13608 "/>
<path transform="matrix(1,0,0,-1,42.618,161.58499)" stroke-width=".19925" stroke-linecap="butt" stroke-miterlimit="10" stroke-linejoin="miter" fill="none" stroke="#929292" d="M 0 0 L 4.25249 0 M 0 16.9882 L 4.25249 16.9882 M 0 33.97641 L 4.25249 33.97641 M 0 50.96463 L 4.25249 50.96463 M 0 67.95284 L 4.25249 67.95284 M 0 84.94104 L 4.25249 84.94104 M 0 101.92926 L 4.25249 101.92926 M 0 118.91747 L 4.25249 118.91747 M 0 135.90569 L 4.25249 135.90569 M 0 152.89389 L 4.25249 152.89389 M 264.50715 0 L 260.2546 0 M 264.50715 16.9882 L 260.2546 16.9882 M 264.50715 33.97641 L 260.2546 33.97641 M 264.50715 50.96463 L 260.2546 50.96463 M 264.50715 67.95284 L 260.2546 67.95284 M 264.50715 84.94104 L 260.2546 84.94104 M 264.50715 101.92926 L 260.2546 101.92926 M 264.50715 118.91747 L 260.2546 118.91747 M 264.50715 135.90569 L 260.2546 135.90569 M 264.50715 152.89389 L 260.2546 152.89389 "/>
<path transform="matrix(1,0,0,-1,42.618,161.58499)" stroke-width=".3985" stroke-linecap="butt" stroke-miterlimit="10" stroke-linejoin="miter" fill="none" stroke="#000000" d="M 0 0 L 0 161.388 L 264.50715 161.388 L 264.50715 0 L 0 0 Z "/>
<text xml:space="preserve" transform="matrix(1 0 -0 1 0 190.288)" font-size="9.9626" font-family="CMR10"><tspan y="-18.763" x="45.637">1</tspan></text>
<text xml:space="preserve" transform="matrix(1 0 -0 1 0 190.288)" font-size="9.9626" font-family="CMR10"><tspan y="-18.763" x="56.658">2</tspan></text>
<text xml:space="preserve" transform="matrix(1 0 -0 1 0 190.288)" font-size="9.9626" font-family="CMR10"><tspan y="-18.763" x="67.679">3</tspan></text>
<text xml:space="preserve" transform="matrix(1 0 -0 1 0 190.288)" font-size="9.9626" font-family="CMR10"><tspan y="-18.763" x="78.7">4</tspan></text>
<text xml:space="preserve" transform="matrix(1 0 -0 1 .0000076293949 190.288)" font-size="9.9626" font-family="CMR10"><tspan y="-18.763" x="100.742">6</tspan></text>
<text xml:space="preserve" transform="matrix(1 0 -0 1 0 190.288)" font-size="9.9626" font-family="CMR10"><tspan y="-18.763" x="122.784">8</tspan></text>
<text xml:space="preserve" transform="matrix(1 0 -0 1 0 190.288)" font-size="9.9626" font-family="CMR10"><tspan y="-18.763" x="164.378 169.3593">12</tspan></text>
<text xml:space="preserve" transform="matrix(1 0 -0 1 -.000015258789 190.288)" font-size="9.9626" font-family="CMR10"><tspan y="-18.763" x="208.462 213.4433">16</tspan></text>
<text xml:space="preserve" transform="matrix(1 0 -0 1 -.000015258789 190.288)" font-size="9.9626" font-family="CMR10"><tspan y="-18.763" x="252.546 257.5273">20</tspan></text>
<text xml:space="preserve" transform="matrix(1 0 -0 1 0 190.288)" font-size="9.9626" font-family="CMR10"><tspan y="-18.763" x="296.63 301.6113">24</tspan></text>
<text xml:space="preserve" transform="matrix(1 0 -0 1 0 190.288)" font-size="9.9626" font-family="CMR10"><tspan y="-25.493" x="34.117">1</tspan></text>
<text xml:space="preserve" transform="matrix(1 0 -0 1 0 190.288)" font-size="9.9626" font-family="CMR10"><tspan y="-42.481" x="34.117">2</tspan></text>
<text xml:space="preserve" transform="matrix(1 0 -0 1 0 190.288)" font-size="9.9626" font-family="CMR10"><tspan y="-59.469" x="34.117">3</tspan></text>
<text xml:space="preserve" transform="matrix(1 0 -0 1 0 190.288)" font-size="9.9626" font-family="CMR10"><tspan y="-76.457" x="34.117">4</tspan></text>
<text xml:space="preserve" transform="matrix(1 0 -0 1 0 190.288)" font-size="9.9626" font-family="CMR10"><tspan y="-93.445" x="34.117">5</tspan></text>
<text xml:space="preserve" transform="matrix(1 0 -0 1 0 190.288)" font-size="9.9626" font-family="CMR10"><tspan y="-110.433" x="34.117">6</tspan></text>
<text xml:space="preserve" transform="matrix(1 0 -0 1 0 190.288)" font-size="9.9626" font-family="CMR10"><tspan y="-127.421" x="34.117">7</tspan></text>
<text xml:space="preserve" transform="matrix(1 0 -0 1 0 190.288)" font-size="9.9626" font-family="CMR10"><tspan y="-144.409" x="34.117">8</tspan></text>
<text xml:space="preserve" transform="matrix(1 0 -0 1 0 190.288)" font-size="9.9626" font-family="CMR10"><tspan y="-161.397" x="34.117">9</tspan></text>
<text xml:space="preserve" transform="matrix(1 0 -0 1 0 190.28798)" font-size="9.9626" font-family="CMR10"><tspan y="-178.385" x="29.135 34.1163">10</tspan></text>
<clipPath id="cp0">
<path transform="matrix(1,0,0,-1,42.618,161.58499)" d="M 0 0 L 264.50715 0 L 264.50715 161.388 L 0 161.388 Z "/>
</clipPath>
<g clip-path="url(#cp0)">
<path transform="matrix(1,0,0,-1,42.618,161.58499)" stroke-width=".3985" stroke-linecap="butt" stroke-miterlimit="10" stroke-linejoin="miter" fill="none" stroke="#000000" d="M 5.51056 0 L 16.5317 14.15509 L 27.55281 23.54152 L 38.57394 29.9602 L 60.61621 50.65329 L 82.65846 67.82231 L 126.743 97.12202 L 170.82752 122.62898 L 214.91204 139.74327 L 258.99656 150.34789 "/>
</g>
<path transform="matrix(1,0,0,-1,42.618,161.58499)" stroke-width=".3985" stroke-linecap="butt" stroke-miterlimit="10" stroke-linejoin="miter" fill="none" stroke="#000000" d="M 3.518 -1.99255 L 7.5031 -1.99255 L 7.5031 1.99255 L 3.518 1.99255 Z "/>
<path transform="matrix(1,0,0,-1,42.618,161.58499)" stroke-width=".3985" stroke-linecap="butt" stroke-miterlimit="10" stroke-linejoin="miter" fill="none" stroke="#000000" d="M 14.53914 12.16254 L 18.52424 12.16254 L 18.52424 16.14764 L 14.53914 16.14764 Z "/>
<path transform="matrix(1,0,0,-1,42.618,161.58499)" stroke-width=".3985" stroke-linecap="butt" stroke-miterlimit="10" stroke-linejoin="miter" fill="none" stroke="#000000" d="M 25.56026 21.54897 L 29.54536 21.54897 L 29.54536 25.53407 L 25.56026 25.53407 Z "/>
<path transform="matrix(1,0,0,-1,42.618,161.58499)" stroke-width=".3985" stroke-linecap="butt" stroke-miterlimit="10" stroke-linejoin="miter" fill="none" stroke="#000000" d="M 36.58139 27.96765 L 40.56649 27.96765 L 40.56649 31.95275 L 36.58139 31.95275 Z "/>
<path transform="matrix(1,0,0,-1,42.618,161.58499)" stroke-width=".3985" stroke-linecap="butt" stroke-miterlimit="10" stroke-linejoin="miter" fill="none" stroke="#000000" d="M 58.62366 48.66074 L 62.60876 48.66074 L 62.60876 52.64584 L 58.62366 52.64584 Z "/>
<path transform="matrix(1,0,0,-1,42.618,161.58499)" stroke-width=".3985" stroke-linecap="butt" stroke-miterlimit="10" stroke-linejoin="miter" fill="none" stroke="#000000" d="M 80.66591 65.82976 L 84.65101 65.82976 L 84.65101 69.81486 L 80.66591 69.81486 Z "/>
<path transform="matrix(1,0,0,-1,42.618,161.58499)" stroke-width=".3985" stroke-linecap="butt" stroke-miterlimit="10" stroke-linejoin="miter" fill="none" stroke="#000000" d="M 124.75044 95.12947 L 128.73555 95.12947 L 128.73555 99.11457 L 124.75044 99.11457 Z "/>
<path transform="matrix(1,0,0,-1,42.618,161.58499)" stroke-width=".3985" stroke-linecap="butt" stroke-miterlimit="10" stroke-linejoin="miter" fill="none" stroke="#000000" d="M 168.83496 120.63643 L 172.82007 120.63643 L 172.82007 124.62153 L 168.83496 124.62153 Z "/>
<path transform="matrix(1,0,0,-1,42.618,161.58499)" stroke-width=".3985" stroke-linecap="butt" stroke-miterlimit="10" stroke-linejoin="miter" fill="none" stroke="#000000" d="M 212.91948 137.75072 L 216.90459 137.75072 L 216.90459 141.73583 L 212.91948 141.73583 Z "/>
<path transform="matrix(1,0,0,-1,42.618,161.58499)" stroke-width=".3985" stroke-linecap="butt" stroke-miterlimit="10" stroke-linejoin="miter" fill="none" stroke="#000000" d="M 257.004 148.35533 L 260.9891 148.35533 L 260.9891 152.34044 L 257.004 152.34044 Z "/>
<path transform="matrix(1,0,0,-1,42.618,161.58499)" stroke-width=".3985" stroke-linecap="butt" stroke-miterlimit="10" stroke-linejoin="miter" fill="none" stroke="#000000" d=""/>
<text xml:space="preserve" transform="matrix(1 0 -0 1 0 190.288)" font-size="9.9626" font-family="CMR10"><tspan y="-3.321" x="157.117 164.31 169.8492 173.75453 178.17794 183.15923 188.69843">Threads</tspan></text>
<text xml:space="preserve" transform="matrix(0 -1 1 0 101.231998 109.53399)" font-size="9.9626" font-family="CMR10"><tspan y="-90.993" x="10.239 15.778206 21.596365 26.01976 30.443156 35.98236 41.52157">Speedup</tspan></text>
</g>
</svg>
